Coordinates
version=1
nRows=11
nColumns=40
inDegrees=yes

Units are S.I. units (second, meters, Newtons, ...)
If the header above contains a line with 'inDegrees', this indicates whether rotational values are in degrees (yes) or radians (no).

endheader
time	pelvis_tilt	pelvis_list	pelvis_rotation	pelvis_tx	pelvis_ty	pelvis_tz	hip_flexion_r	hip_adduction_r	hip_rotation_r	knee_angle_r	knee_angle_r_beta	ankle_angle_r	subtalar_angle_r	mtp_angle_r	hip_flexion_l	hip_adduction_l	hip_rotation_l	knee_angle_l	knee_angle_l_beta	ankle_angle_l	subtalar_angle_l	mtp_angle_l	lumbar_extension	lumbar_bending	lumbar_rotation	arm_flex_r	arm_add_r	arm_rot_r	elbow_flex_r	pro_sup_r	wrist_flex_r	wrist_dev_r	arm_flex_l	arm_add_l	arm_rot_l	elbow_flex_l	pro_sup_l	wrist_flex_l	wrist_dev_l
      1.50000000	     -1.80475719	      1.94479652	      4.21455900	     -0.32839155	      1.00165771	     -0.76087432	      8.77592408	      0.42568961	     -7.56623427	     13.81095469	      0.24104663	     -9.49863201	      0.00000000	      0.00000000	     17.33871825	     -6.80899525	      3.47263810	     32.22304703	      0.56239827	     -9.67816246	      0.00000000	      0.00000000	     -4.06651637	     -0.76044028	     -4.75788661	     89.72568313	     -6.68044844	     41.83107329	     29.96974815	     83.24146710	      0.00000000	      0.00000000	     89.73772319	    -15.68651238	     45.63874789	     34.08711538	     85.14120183	      0.00000000	      0.00000000
      1.50500000	     -1.82887348	      1.93557853	      4.26377476	     -0.32881966	      1.00151773	     -0.76027793	      8.88256805	      0.45209865	     -7.63307561	     13.91077474	      0.24278882	     -9.51260963	      0.00000000	      0.00000000	     17.69582446	     -6.79151895	      3.48476254	     32.68311107	      0.57042790	     -9.55416457	      0.00000000	      0.00000000	     -4.12594468	     -0.73085563	     -4.82305151	     89.72685917	     -6.54773209	     41.32751514	     29.89784251	     83.88146423	      0.00000000	      0.00000000	     89.73464576	    -15.68233506	     45.41024738	     34.02883456	     85.57784611	      0.00000000	      0.00000000
      1.51000000	     -1.85508304	      1.92562572	      4.29164727	     -0.32930731	      1.00135580	     -0.75969360	      8.98142921	      0.48878326	     -7.65308547	     13.97381665	      0.24388911	     -9.52975658	      0.00000000	      0.00000000	     18.08532687	     -6.75577062	      3.50872484	     33.20381380	      0.57951588	     -9.36298569	      0.00000000	      0.00000000	     -4.15042051	     -0.72315557	     -4.69560749	     89.72995261	     -6.71828416	     41.32232998	     30.00622990	     83.65355293	      0.00000000	      0.00000000	     89.73303250	    -15.49443621	     45.32020619	     33.93939239	     85.71407491	      0.00000000	      0.00000000
      1.51500000	     -1.87574210	      1.91137854	      4.30616840	     -0.32972514	      1.00115944	     -0.75909283	      9.10781193	      0.51910468	     -7.70391644	     14.13524306	      0.24670653	     -9.46488309	      0.00000000	      0.00000000	     18.43262232	     -6.74248356	      3.49887457	     33.64032940	      0.58713451	     -9.27056957	      0.00000000	      0.00000000	     -4.17747844	     -0.69760305	     -4.65654084	     89.73025486	     -6.76917526	     41.26485236	     30.05703603	     83.74240057	      0.00000000	      0.00000000	     89.73672050	    -15.46150698	     45.40255940	     33.95218367	     85.59325334	      0.00000000	      0.00000000
      1.52000000	     -1.89635572	      1.92137663	      4.34207843	     -0.33017997	      1.00104191	     -0.75851905	      9.15301497	      0.53885123	     -7.71696262	     14.11234522	      0.24630689	     -9.48907778	      0.00000000	      0.00000000	     18.76855742	     -6.66824773	      3.51499437	     34.03349068	      0.59399647	     -8.81253504	      0.00000000	      0.00000000	     -4.21873607	     -0.70978789	     -4.60463756	     89.73347823	     -6.85621733	     41.22968873	     30.09789459	     83.75525899	      0.00000000	      0.00000000	     89.73389399	    -15.38033374	     45.30110437	     33.99668791	     85.67842014	      0.00000000	      0.00000000
      1.52500000	     -1.95334242	      1.95255733	      4.33917648	     -0.33065457	      1.00084854	     -0.75793010	      9.32112158	      0.52838857	     -7.64719137	     14.27280422	      0.24910743	     -9.41386480	      0.00000000	      0.00000000	     19.08527587	     -6.60040061	      3.43262952	     34.28467035	      0.59838038	     -8.74057342	      0.00000000	      0.00000000	     -4.21811168	     -0.73413318	     -4.54820689	     89.73558004	     -6.88889463	     41.09096794	     30.13966106	     83.92787748	      0.00000000	      0.00000000	     89.73459583	    -15.31314466	     45.19454542	     33.96673519	     85.57362739	      0.00000000	      0.00000000
      1.53000000	     -1.97898306	      1.96151364	      4.36580771	     -0.33114668	      1.00072984	     -0.75736554	      9.43286030	      0.53079816	     -7.72201437	     14.37831344	      0.25094891	     -9.41860432	      0.00000000	      0.00000000	     19.39923150	     -6.51382282	      3.43939461	     34.55479210	      0.60309489	     -8.33555477	      0.00000000	      0.00000000	     -4.26263696	     -0.72380894	     -4.55810378	     89.73824283	     -6.87894840	     40.97224898	     30.21440777	     83.75908891	      0.00000000	      0.00000000	     89.73530026	    -15.31366782	     45.16866656	     33.94416470	     85.62295484	      0.00000000	      0.00000000
      1.53500000	     -2.00666487	      1.97646121	      4.36687229	     -0.33150814	      1.00056680	     -0.75681619	      9.54109877	      0.53607362	     -7.76216554	     14.48878407	      0.25287699	     -9.37505598	      0.00000000	      0.00000000	     19.69655099	     -6.44362896	      3.23538499	     34.70745296	      0.60575933	     -7.86399328	      0.00000000	      0.00000000	     -4.28349702	     -0.73162601	     -4.49706122	     89.73953755	     -6.92549154	     40.91825747	     30.22755650	     83.73177187	      0.00000000	      0.00000000	     89.73568220	    -15.26117054	     45.23796141	     33.89826015	     85.65717301	      0.00000000	      0.00000000
      1.54000000	     -2.04244384	      2.02429019	      4.39113541	     -0.33198303	      1.00043946	     -0.75627408	      9.65085609	      0.49849202	     -7.81224378	     14.57927873	      0.25445642	     -9.35395491	      0.00000000	      0.00000000	     19.98176088	     -6.31571982	      3.31353820	     34.93278440	      0.60969210	     -7.82215139	      0.00000000	      0.00000000	     -4.31549463	     -0.76904299	     -4.44727966	     89.74113812	     -6.98735308	     40.82262437	     30.29687934	     83.88869633	      0.00000000	      0.00000000	     89.73483138	    -15.22189088	     45.23608972	     33.90564989	     85.58542107	      0.00000000	      0.00000000
      1.54500000	     -2.02512911	      2.06955627	      4.40806868	     -0.33235910	      1.00041019	     -0.75583238	      9.72097599	      0.45015200	     -7.89714668	     14.74008480	      0.25726301	     -9.27298272	      0.00000000	      0.00000000	     20.22200843	     -6.17902815	      3.13936734	     35.01342082	      0.61109948	     -7.30187826	      0.00000000	      0.00000000	     -4.40234922	     -0.78850540	     -4.40012681	     89.74545369	     -7.11835045	     40.99025408	     30.49487011	     83.18521381	      0.00000000	      0.00000000	     89.73723986	    -15.28287168	     45.56043323	     34.12476531	     85.13959125	      0.00000000	      0.00000000
      1.55000000	     -2.06842512	      2.08438704	      4.42403340	     -0.33292459	      1.00032359	     -0.75526553	      9.82989367	      0.46316722	     -7.87936933	     14.77046539	      0.25779325	     -9.33037291	      0.00000000	      0.00000000	     20.51022390	     -6.08743118	      3.06418270	     35.08833929	      0.61240705	     -7.26816461	      0.00000000	      0.00000000	     -4.42397637	     -0.78991641	     -4.37961451	     89.74403519	     -7.05447640	     40.67776417	     30.38405120	     83.59282034	      0.00000000	      0.00000000	     89.73633402	    -15.19164547	     45.23848141	     33.96652059	     85.49296317	      0.00000000	      0.00000000
